<?xml version="1.0" encoding="UTF-8" standalone="no"?><svg xmlns="http://www.w3.org/2000/svg" xmlns:xlink="http://www.w3.org/1999/xlink" contentStyleType="text/css" height="819px" preserveAspectRatio="none" style="width:1395px;height:819px;background:#FFFFFF;" version="1.1" viewBox="0 0 1395 819" width="1395px" zoomAndPan="magnify"><defs/><g><text fill="#000000" font-family="sans-serif" font-size="14" font-weight="bold" lengthAdjust="spacing" textLength="226" x="577.5" y="23.5352">FedCM Playground Deployment</text><!--cluster aws--><g id="cluster_aws"><polygon fill="none" points="16,107.8783,26,97.8783,1378,97.8783,1378,766.8783,1368,776.8783,16,776.8783,16,107.8783" style="stroke:#181818;stroke-width:1.0;"/><line style="stroke:#181818;stroke-width:1.0;" x1="1368" x2="1378" y1="107.8783" y2="97.8783"/><line style="stroke:#181818;stroke-width:1.0;" x1="16" x2="1368" y1="107.8783" y2="107.8783"/><line style="stroke:#181818;stroke-width:1.0;" x1="1368" x2="1368" y1="107.8783" y2="776.8783"/><text fill="#000000" font-family="sans-serif" font-size="14" font-style="italic" lengthAdjust="spacing" textLength="89" x="648.5" y="124.4134">«US-West-2»</text><text fill="#000000" font-family="sans-serif" font-size="14" font-weight="bold" lengthAdjust="spacing" textLength="156" x="615" y="140.9017">Amazon Web Services</text></g><!--cluster chromedev--><g id="cluster_chromedev"><polygon fill="none" points="40,187.8783,50,177.8783,282,177.8783,282,332.8783,272,342.8783,40,342.8783,40,187.8783" style="stroke:#181818;stroke-width:1.0;"/><line style="stroke:#181818;stroke-width:1.0;" x1="272" x2="282" y1="187.8783" y2="177.8783"/><line style="stroke:#181818;stroke-width:1.0;" x1="40" x2="272" y1="187.8783" y2="187.8783"/><line style="stroke:#181818;stroke-width:1.0;" x1="272" x2="272" y1="187.8783" y2="342.8783"/><text fill="#000000" font-family="sans-serif" font-size="14" font-style="italic" lengthAdjust="spacing" textLength="134" x="90" y="204.4134">«Docker Container»</text><text fill="#000000" font-family="sans-serif" font-size="14" font-weight="bold" lengthAdjust="spacing" textLength="166" x="74" y="220.9017">Container: Chrome Dev</text></g><!--cluster apacheds--><g id="cluster_apacheds"><polygon fill="none" points="81,425.8783,91,415.8783,406,415.8783,406,586.8783,396,596.8783,81,596.8783,81,425.8783" style="stroke:#181818;stroke-width:1.0;"/><line style="stroke:#181818;stroke-width:1.0;" x1="396" x2="406" y1="425.8783" y2="415.8783"/><line style="stroke:#181818;stroke-width:1.0;" x1="81" x2="396" y1="425.8783" y2="425.8783"/><line style="stroke:#181818;stroke-width:1.0;" x1="396" x2="396" y1="425.8783" y2="596.8783"/><text fill="#000000" font-family="sans-serif" font-size="14" font-style="italic" lengthAdjust="spacing" textLength="131" x="174" y="442.4134">«Docker container»</text><text fill="#000000" font-family="sans-serif" font-size="14" font-weight="bold" lengthAdjust="spacing" textLength="249" x="115" y="458.9017">Container: Apache Directory Server</text></g><!--cluster shibidp--><g id="cluster_shibidp"><polygon fill="none" points="314,179.8783,324,169.8783,573,169.8783,573,340.8783,563,350.8783,314,350.8783,314,179.8783" style="stroke:#181818;stroke-width:1.0;"/><line style="stroke:#181818;stroke-width:1.0;" x1="563" x2="573" y1="179.8783" y2="169.8783"/><line style="stroke:#181818;stroke-width:1.0;" x1="314" x2="563" y1="179.8783" y2="179.8783"/><line style="stroke:#181818;stroke-width:1.0;" x1="563" x2="563" y1="179.8783" y2="350.8783"/><text fill="#000000" font-family="sans-serif" font-size="14" font-style="italic" lengthAdjust="spacing" textLength="131" x="374" y="196.4134">«Docker container»</text><text fill="#000000" font-family="sans-serif" font-size="14" font-weight="bold" lengthAdjust="spacing" textLength="183" x="348" y="212.9017">Container: Shibboleth IdP</text></g><!--cluster shibsp--><g id="cluster_shibsp"><polygon fill="none" points="1093,179.8783,1103,169.8783,1346,169.8783,1346,340.8783,1336,350.8783,1093,350.8783,1093,179.8783" style="stroke:#181818;stroke-width:1.0;"/><line style="stroke:#181818;stroke-width:1.0;" x1="1336" x2="1346" y1="179.8783" y2="169.8783"/><line style="stroke:#181818;stroke-width:1.0;" x1="1093" x2="1336" y1="179.8783" y2="179.8783"/><line style="stroke:#181818;stroke-width:1.0;" x1="1336" x2="1336" y1="179.8783" y2="350.8783"/><text fill="#000000" font-family="sans-serif" font-size="14" font-style="italic" lengthAdjust="spacing" textLength="131" x="1150" y="196.4134">«Docker container»</text><text fill="#000000" font-family="sans-serif" font-size="14" font-weight="bold" lengthAdjust="spacing" textLength="177" x="1127" y="212.9017">Container: Shibboleth SP</text></g><!--cluster rp--><g id="cluster_rp"><polygon fill="none" points="1062,468.0183,1072,458.0183,1345,458.0183,1345,734.8783,1335,744.8783,1062,744.8783,1062,468.0183" style="stroke:#181818;stroke-width:1.0;"/><line style="stroke:#181818;stroke-width:1.0;" x1="1335" x2="1345" y1="468.0183" y2="458.0183"/><line style="stroke:#181818;stroke-width:1.0;" x1="1062" x2="1335" y1="468.0183" y2="468.0183"/><line style="stroke:#181818;stroke-width:1.0;" x1="1335" x2="1335" y1="468.0183" y2="744.8783"/><text fill="#000000" font-family="sans-serif" font-size="14" font-style="italic" lengthAdjust="spacing" textLength="131" x="1134" y="484.5534">«Docker container»</text><text fill="#000000" font-family="sans-serif" font-size="14" font-weight="bold" lengthAdjust="spacing" textLength="207" x="1096" y="501.0417">Container: Relying Party App</text></g><!--cluster eds--><g id="cluster_eds"><polygon fill="none" points="613,179.8783,623,169.8783,1053,169.8783,1053,340.8783,1043,350.8783,613,350.8783,613,179.8783" style="stroke:#181818;stroke-width:1.0;"/><line style="stroke:#181818;stroke-width:1.0;" x1="1043" x2="1053" y1="179.8783" y2="169.8783"/><line style="stroke:#181818;stroke-width:1.0;" x1="613" x2="1043" y1="179.8783" y2="179.8783"/><line style="stroke:#181818;stroke-width:1.0;" x1="1043" x2="1043" y1="179.8783" y2="350.8783"/><text fill="#000000" font-family="sans-serif" font-size="14" font-style="italic" lengthAdjust="spacing" textLength="131" x="763.5" y="196.4134">«Docker container»</text><text fill="#000000" font-family="sans-serif" font-size="14" font-weight="bold" lengthAdjust="spacing" textLength="364" x="647" y="212.9017">Container: Shibboleth Embedded Discovery Service</text></g><!--cluster s3--><g id="cluster_s3"><polygon fill="none" points="438,433.8783,448,423.8783,1030,423.8783,1030,578.8783,1020,588.8783,438,588.8783,438,433.8783" style="stroke:#181818;stroke-width:1.0;"/><line style="stroke:#181818;stroke-width:1.0;" x1="1020" x2="1030" y1="433.8783" y2="423.8783"/><line style="stroke:#181818;stroke-width:1.0;" x1="438" x2="1020" y1="433.8783" y2="433.8783"/><line style="stroke:#181818;stroke-width:1.0;" x1="1020" x2="1020" y1="433.8783" y2="588.8783"/><text fill="#000000" font-family="sans-serif" font-size="14" font-style="italic" lengthAdjust="spacing" textLength="81" x="689.5" y="450.4134">«S3 bucket»</text><text fill="#000000" font-family="sans-serif" font-size="14" font-weight="bold" lengthAdjust="spacing" textLength="80" x="690" y="466.9017">Amazon S3</text></g><!--entity fedcmapi--><g id="elem_fedcmapi"><rect fill="#1168BD" height="52.9766" rx="2.5" ry="2.5" style="stroke:#707070;stroke-width:0.5;" width="107" x="158.5" y="273.8783"/><text fill="#000000" font-family="sans-serif" font-size="14" font-style="italic" lengthAdjust="spacing" textLength="50" x="187" y="297.4134">«Code»</text><text fill="#000000" font-family="sans-serif" font-size="14" lengthAdjust="spacing" textLength="87" x="168.5" y="313.9017">FedCM Code</text></g><!--entity apachedscontainer--><g id="elem_apachedscontainer"><rect fill="#1168BD" height="52.9766" rx="2.5" ry="2.5" style="stroke:#707070;stroke-width:0.5;" width="154" x="228" y="519.8783"/><text fill="#000000" font-family="sans-serif" font-size="14" font-style="italic" lengthAdjust="spacing" textLength="134" x="238" y="543.4134">«Docker Container»</text><text fill="#000000" font-family="sans-serif" font-size="14" lengthAdjust="spacing" textLength="69" x="270.5" y="559.9017">ApacheDS</text></g><!--entity shibidpcontainer--><g id="elem_shibidpcontainer"><rect fill="#1168BD" height="52.9766" rx="2.5" ry="2.5" style="stroke:#707070;stroke-width:0.5;" width="102" x="445" y="273.8783"/><text fill="#000000" font-family="sans-serif" font-size="14" font-style="italic" lengthAdjust="spacing" textLength="82" x="455" y="297.4134">«Container»</text><text fill="#000000" font-family="sans-serif" font-size="14" lengthAdjust="spacing" textLength="55" x="468.5" y="313.9017">Shib IdP</text></g><!--entity shibspcontainer--><g id="elem_shibspcontainer"><rect fill="#1168BD" height="52.9766" rx="2.5" ry="2.5" style="stroke:#707070;stroke-width:0.5;" width="102" x="1178" y="273.8783"/><text fill="#000000" font-family="sans-serif" font-size="14" font-style="italic" lengthAdjust="spacing" textLength="82" x="1188" y="297.4134">«Container»</text><text fill="#000000" font-family="sans-serif" font-size="14" lengthAdjust="spacing" textLength="50" x="1204" y="313.9017">Shib SP</text></g><!--entity wikicontainer--><g id="elem_wikicontainer"><rect fill="#1168BD" height="52.9766" rx="2.5" ry="2.5" style="stroke:#707070;stroke-width:0.5;" width="102" x="1116" y="667.8783"/><text fill="#000000" font-family="sans-serif" font-size="14" font-style="italic" lengthAdjust="spacing" textLength="82" x="1126" y="691.4134">«Container»</text><text fill="#000000" font-family="sans-serif" font-size="14" lengthAdjust="spacing" textLength="28" x="1153" y="707.9017">Wiki</text></g><!--entity edscontainer--><g id="elem_edscontainer"><rect fill="#1168BD" height="52.9766" rx="2.5" ry="2.5" style="stroke:#707070;stroke-width:0.5;" width="102" x="872" y="273.8783"/><text fill="#000000" font-family="sans-serif" font-size="14" font-style="italic" lengthAdjust="spacing" textLength="82" x="882" y="297.4134">«Container»</text><text fill="#000000" font-family="sans-serif" font-size="14" lengthAdjust="spacing" textLength="60" x="893" y="313.9017">Shib EDS</text></g><!--entity metadata--><g id="elem_metadata"><rect fill="#F1F1F1" height="52.9766" rx="2.5" ry="2.5" style="stroke:#707070;stroke-width:0.5;" width="124" x="890" y="519.8783"/><text fill="#000000" font-family="sans-serif" font-size="14" font-style="italic" lengthAdjust="spacing" textLength="42" x="931" y="543.4134">«XML»</text><text fill="#000000" font-family="sans-serif" font-size="14" lengthAdjust="spacing" textLength="104" x="900" y="559.9017">SAML Metadata</text></g><!--entity discofeed--><g id="elem_discofeed"><rect fill="#F1F1F1" height="52.9766" rx="2.5" ry="2.5" style="stroke:#707070;stroke-width:0.5;" width="230" x="625" y="519.8783"/><text fill="#000000" font-family="sans-serif" font-size="14" font-style="italic" lengthAdjust="spacing" textLength="47" x="716.5" y="543.4134">«JSON»</text><text fill="#000000" font-family="sans-serif" font-size="14" lengthAdjust="spacing" textLength="210" x="635" y="559.9017">Shibboleth EDS Discovery Feed</text></g><!--entity fedcmjs--><g id="elem_fedcmjs"><rect fill="#F1F1F1" height="52.9766" rx="2.5" ry="2.5" style="stroke:#707070;stroke-width:0.5;" width="136" x="454" y="519.8783"/><text fill="#000000" font-family="sans-serif" font-size="14" font-style="italic" lengthAdjust="spacing" textLength="80" x="482" y="543.4134">«JavaScript»</text><text fill="#000000" font-family="sans-serif" font-size="14" lengthAdjust="spacing" textLength="116" x="464" y="559.9017">FedCM Javascript</text></g><!--link shibsp to rp--><g id="link_shibsp_rp"><path d="M1139.0573,350.9612 C1139.1713,351.0646 1139.2856,351.1678 1139.4001,351.2709 C1139.8579,351.6832 1140.319,352.0924 1140.7833,352.4984 C1141.7117,353.3104 1142.6529,354.1094 1143.6062,354.8931 C1145.5128,356.4606 1147.4684,357.967 1149.4697,359.3949 C1153.4722,362.2506 1157.6575,364.792 1162,366.8783 C1183.49,377.1983 1252.78,357.3983 1269,374.8783 C1283.7825,390.8058 1285.1119,409.2195 1278.7144,427.9313 C1275.5156,437.2871 1270.3852,446.7175 1264.0388,455.9488 C1263.6421,456.5257 1263.2407,457.1019 1262.8347,457.6772 " fill="none" id="shibsp-to-rp" style="stroke:#707070;stroke-width:1.0;stroke-dasharray:7.0,7.0;"/><polygon fill="#707070" points="1262.8347,457.6772,1271.2919,452.6299,1265.7175,453.5919,1264.7554,448.0175,1262.8347,457.6772" style="stroke:#707070;stroke-width:1.0;"/><text fill="#000000" font-family="sans-serif" font-size="13" lengthAdjust="spacing" textLength="52" x="1280" y="388.4466">protects</text></g><!--link shibsp to rp--><g id="link_shibsp_rp"><path d="M1092.7899,307.8144 C1092.6201,307.9559 1092.4484,308.0995 1092.2748,308.2452 C1091.5803,308.828 1090.8556,309.4441 1090.1048,310.0922 C1084.0991,315.2767 1076.4294,322.5039 1069.2763,331.032 C1054.97,348.0883 1042.73,370.3483 1050,391.8783 C1056.7525,411.8783 1067.2675,431.3308 1079.2841,449.2941 C1080.7861,451.5395 1082.3117,453.7616 1083.8562,455.9586 C1084.2424,456.5079 1084.6297,457.0556 1085.0182,457.6017 " fill="none" id="shibsp-to-rp-1" style="stroke:#707070;stroke-width:1.0;stroke-dasharray:7.0,7.0;"/><polygon fill="#707070" points="1085.0182,457.6017,1083.0608,447.9493,1082.1199,453.5273,1076.5419,452.5865,1085.0182,457.6017" style="stroke:#707070;stroke-width:1.0;"/><text fill="#000000" font-family="sans-serif" font-size="13" lengthAdjust="spacing" textLength="209" x="1051" y="388.4466">generates session with attributes</text></g><!--link shibidp to metadata--><g id="link_shibidp_metadata"><path d="M417.1984,351.1582 C417.2953,351.3665 417.3933,351.5741 417.4926,351.781 C417.8896,352.6088 418.3061,353.4259 418.7429,354.2301 C419.6165,355.8385 420.5716,357.3956 421.6153,358.885 C423.7028,361.8639 426.145,364.572 429,366.8783 C448.58,382.6983 517.76,368.0883 542,374.8783 C557.89,379.3283 559.02,387.7783 575,391.8783 C607.08,400.1183 844.76,382.5583 873,399.8783 C913.6,424.7783 934.74,478.3983 944.6,513.1283 " fill="none" id="shibidp-to-metadata" style="stroke:#707070;stroke-width:1.0;stroke-dasharray:7.0,7.0;"/><polygon fill="#707070" points="945.91,517.9183,947.4059,508.1837,944.5968,513.0938,939.6867,510.2848,945.91,517.9183" style="stroke:#707070;stroke-width:1.0;"/><text fill="#000000" font-family="sans-serif" font-size="13" lengthAdjust="spacing" textLength="64" x="576" y="388.4466">consumes</text></g><!--link eds to discofeed--><g id="link_eds_discofeed"><path d="M773.3436,351.6547 C773.2916,351.9566 773.2395,352.2594 773.1872,352.5631 C771.5147,362.2812 769.6844,372.9161 767.77,384.0395 C760.1125,428.5333 751.11,480.8433 745.48,513.5583 " fill="none" id="eds-to-discofeed" style="stroke:#707070;stroke-width:1.0;stroke-dasharray:7.0,7.0;"/><polygon fill="#707070" points="744.69,518.1483,750.1499,509.9513,745.5328,513.2198,742.2643,508.6028,744.69,518.1483" style="stroke:#707070;stroke-width:1.0;"/><text fill="#000000" font-family="sans-serif" font-size="13" lengthAdjust="spacing" textLength="64" x="769" y="388.4466">consumes</text></g><!--link shibsp to metadata--><g id="link_shibsp_metadata"><path d="M1092.7571,306.607 C1092.5767,306.7206 1092.3936,306.8357 1092.2079,306.9525 C1091.4652,307.4196 1090.6807,307.9122 1089.8564,308.4289 C1083.2622,312.5627 1074.1231,318.2383 1063.4837,324.7008 C1042.205,337.6258 1014.925,353.6983 990,366.8783 C982.62,370.7783 977.9,368.1183 973,374.8783 C943.57,415.5283 943.75,476.3983 947.34,513.3483 " fill="none" id="shibsp-to-metadata" style="stroke:#707070;stroke-width:1.0;stroke-dasharray:7.0,7.0;"/><polygon fill="#707070" points="947.83,518.0083,950.856,508.6358,947.3014,513.0363,942.9009,509.4816,947.83,518.0083" style="stroke:#707070;stroke-width:1.0;"/><text fill="#000000" font-family="sans-serif" font-size="13" lengthAdjust="spacing" textLength="64" x="974" y="388.4466">consumes</text></g><!--link shibsp to fedcmapi--><g id="link_shibsp_fedcmapi"><path d="M1092.8697,273.1069 C1092.7978,272.8949 1092.7254,272.6819 1092.6526,272.468 C1092.5069,272.0402 1092.3591,271.6088 1092.2094,271.1737 C1091.9099,270.3035 1091.6023,269.419 1091.2866,268.5207 C1090.6552,266.7241 1089.9913,264.8726 1089.2943,262.972 C1087.9005,259.1707 1086.3745,255.1727 1084.7125,251.0235 C1081.3884,242.7252 1077.52,233.822 1073.075,224.6783 C1055.295,188.1033 1028.29,147.6783 990,126.7083 C856.68,53.6983 436.58,48.9083 306,126.7083 C254.87,157.1783 229.86,226.1783 219.06,267.4483 " fill="none" id="shibsp-to-fedcmapi" style="stroke:#707070;stroke-width:1.0;stroke-dasharray:7.0,7.0;"/><polygon fill="#707070" points="217.88,272.1083,223.9703,264.3682,219.1095,267.2618,216.2159,262.401,217.88,272.1083" style="stroke:#707070;stroke-width:1.0;"/><text fill="#000000" font-family="sans-serif" font-size="13" lengthAdjust="spacing" textLength="49" x="345.5" y="78.4466">invokes</text></g><!--link fedcmapi to fedcmjs--><g id="link_fedcmapi_fedcmjs"><path d="M201.08,327.1283 C194.39,347.4383 189.87,375.0583 206,391.8783 C220.78,407.2883 378.8,390.5283 398,399.8783 C447.99,424.2283 485.66,479.0283 505.72,513.9883 " fill="none" id="fedcmapi-to-fedcmjs" style="stroke:#707070;stroke-width:1.0;stroke-dasharray:7.0,7.0;"/><polygon fill="#707070" points="508.04,518.0983,507.1033,508.2941,505.5839,513.7431,500.1349,512.2238,508.04,518.0983" style="stroke:#707070;stroke-width:1.0;"/><text fill="#000000" font-family="sans-serif" font-size="13" lengthAdjust="spacing" textLength="52" x="207" y="388.4466">displays</text></g><!--link fedcmjs to eds--><g id="link_fedcmjs_eds"><path d="M529.68,519.4883 C540.96,486.2383 565.31,429.3383 607,399.8783 C622.52,388.9083 631.45,399.1483 649,391.8783 C665.255,385.1433 681.5644,376.242 696.9169,366.6487 C704.5931,361.8521 712.0302,356.8825 719.1016,351.9241 C719.5435,351.6142 719.9841,351.3043 720.4231,350.9946 " fill="none" id="fedcmjs-to-eds" style="stroke:#707070;stroke-width:1.0;stroke-dasharray:7.0,7.0;"/><polygon fill="#707070" points="720.4231,350.9946,710.7632,352.9143,716.3376,353.8769,715.375,359.4513,720.4231,350.9946" style="stroke:#707070;stroke-width:1.0;"/><text fill="#000000" font-family="sans-serif" font-size="13" lengthAdjust="spacing" textLength="52" x="681" y="388.4466">displays</text></g><!--link eds to shibidp--><g id="link_eds_shibidp"><path d="M654.2011,169.6786 C653.6519,169.2362 653.1016,168.7946 652.5505,168.3539 C651.4481,167.4725 650.3421,166.5947 649.2325,165.7208 C578.2175,109.7883 492.565,69.7183 429,126.7083 C422.1125,132.8845 416.5964,140.0542 412.2227,147.893 C410.0359,151.8123 408.1346,155.899 406.4904,160.1123 C405.6682,162.219 404.9103,164.3574 404.2131,166.5224 C403.8645,167.6048 403.531,168.694 403.2123,169.7891 " fill="none" id="eds-to-shibidp" style="stroke:#707070;stroke-width:1.0;stroke-dasharray:7.0,7.0;"/><polygon fill="#707070" points="403.2123,169.7891,409.5679,162.2654,404.6095,164.9883,401.8866,160.0299,403.2123,169.7891" style="stroke:#707070;stroke-width:1.0;"/><text fill="#000000" font-family="sans-serif" font-size="13" lengthAdjust="spacing" textLength="137" x="609.5" y="78.4466">302 session initiation</text></g><!--link shibidp to apacheds--><g id="link_shibidp_apacheds"><path d="M338.2854,351.0273 C338.04,351.1895 337.7944,351.3517 337.5488,351.5138 C337.0576,351.838 336.5662,352.162 336.0747,352.4856 C335.0915,353.1328 334.1079,353.7788 333.1242,354.4229 C331.157,355.7111 329.1901,356.992 327.2288,358.2615 C319.3834,363.3395 311.6264,368.2344 304.2909,372.6817 C289.62,381.5764 276.635,388.6808 268,391.8783 C256.21,396.2483 220.84,390.9383 212,399.8783 C209.18,402.7327 206.6351,405.7866 204.3421,409.0046 C203.1956,410.6137 202.112,412.2638 201.0886,413.9505 C200.8327,414.3722 200.5806,414.7961 200.3322,415.2223 C200.208,415.4354 200.0847,415.649 199.9624,415.8632 " fill="none" id="shibidp-to-apacheds" style="stroke:#707070;stroke-width:1.0;stroke-dasharray:7.0,7.0;"/><polygon fill="#707070" points="199.9624,415.8632,207.8996,410.0323,202.4424,411.5216,200.953,406.0643,199.9624,415.8632" style="stroke:#707070;stroke-width:1.0;"/><text fill="#000000" font-family="sans-serif" font-size="13" lengthAdjust="spacing" textLength="232" x="301" y="388.4466">verifies user login, fetches attributes</text></g><!--link shibidp to shibsp--><g id="link_shibidp_shibsp"><path d="M403.2123,169.7891 C403.531,168.694 403.8645,167.6048 404.2131,166.5224 C404.9103,164.3574 405.6682,162.219 406.4904,160.1123 C408.1346,155.899 410.0359,151.8123 412.2227,147.893 C416.5964,140.0542 422.1125,132.8845 429,126.7083 C521.82,43.4883 880.66,66.8283 990,126.7083 C1028.29,147.6783 1055.295,188.1033 1073.075,224.6783 C1077.52,233.822 1081.3884,242.7252 1084.7125,251.0235 C1086.3745,255.1727 1087.9005,259.1707 1089.2943,262.972 C1089.9913,264.8726 1090.6552,266.7241 1091.2866,268.5207 C1091.6023,269.419 1091.9099,270.3035 1092.2094,271.1737 C1092.3591,271.6088 1092.5069,272.0402 1092.6526,272.468 C1092.7254,272.6819 1092.7978,272.8949 1092.8697,273.1069 " fill="none" id="shibidp-to-shibsp" style="stroke:#707070;stroke-width:1.0;stroke-dasharray:7.0,7.0;"/><polygon fill="#707070" points="1092.8697,273.1069,1093.7691,263.2992,1091.2647,268.3715,1086.1925,265.8671,1092.8697,273.1069" style="stroke:#707070;stroke-width:1.0;"/><text fill="#000000" font-family="sans-serif" font-size="13" lengthAdjust="spacing" textLength="156" x="446" y="78.4466">200 saml assertion POST</text></g><!--link rp to wikicontainer--><g id="link_rp_wikicontainer"><path d="M1167,547.4883 C1167,550.5383 1167,619.1383 1167,661.1683 " fill="none" id="rp-to-wikicontainer" style="stroke:#707070;stroke-width:1.0;stroke-dasharray:7.0,7.0;"/><polygon fill="#707070" points="1167,666.1583,1171,657.1583,1167,661.1583,1163,657.1583,1167,666.1583" style="stroke:#707070;stroke-width:1.0;"/><text fill="#000000" font-family="sans-serif" font-size="13" lengthAdjust="spacing" textLength="137" x="1168" y="634.4466">user logged in to wiki</text></g><text fill="#000000" font-family="sans-serif" font-size="14" lengthAdjust="spacing" textLength="203" x="589" y="807.4134">FedCM AWS Deployment View</text><!--SRC=[dLNRRXen47tVhnWbhqq48MghLHI9B8dKA3IesvPALH_CUW27NNjb6mYj-FUEzwObU9igy82OEMTyvkAnILYAaB5dkEZrUi_zo_vbO8KbsntoQ0oJbEqMMgqbXn7cgTfbA6sGiDmA9IlCS1gtdF1Tu3O8p4h8d6cMmPy0m2mPLriX5p1dgK6oCAtLDbAfqd3weUU-pfXOfM-KvgXVkXALvKfIVBzROsAPNAJeTqjbyOObgpALoZilFhNNmzi7Kd64as76VbEsKvn1Z7eZ4ZGdS7NrBJwReh5d5zVNm0omhIboBJcHafO9YJg4QAbLXbIYZMEDLB923Os_92S5XkEc2D7A1qxA8aSKrT7TRqcP8qyobWiuxVVVVvnnukrznmzpbYpfUE5YAhqhSa3Tqf8SQc45WPjZAMMeKToTHyrjGhwcBbwAsKobQ9VmYK-wHHd22PuVQt81QchavRn5I_oA5DEb9EuIOlvVnnTCT-wkJ9YsE-fVtgr5UtHCnKfuH6p9_9PIt6Opv1nf0GXgAqtEhhu5tRAyqrFKvxQSdkW8_szfrHMC1uuS3s2sfcDjLTs1vwpX-076Q1bdbZdEZ_53YSugeqzTdV4eRYLxXyXTXFluyNCPWZlVdCp-gthFDimaMkIseD6_kFZNkhPFfiXk7rIpTFwpsZc_pgzTJqF8DIsbn9gW7lm3I9q40QbkPfsX2LpD3q2Dp3RATw0lcW_NR9mGXDoe5S4Qqp7moH2EDEJqX5J0fnSAdUGMvYY3ElSG1hqBC6YCUtM455Omzm3vYzFihn2eWM8kqC3Qq62bQY7aEr9doK-xobejPckB7KMkIX2wfn4Cor9g7uKfNhx9O_orktaBf3bc5BZHl1KqLwq3zGlQuUKC6xqBwfwGO5M1-0i0]--></g></svg>